<svg t="1665820794483" class="icon" viewBox="0 0 1024 1024" version="1.1" xmlns="http://www.w3.org/2000/svg" p-id="3150"
     width="16" height="16">
    <path d="M964.828 636.136c-45.008-82.64-154.004-163.168-154.004-163.168v0.024a435.6 435.6 0 0 0-91.592-54.836c-172.408-76.36-367.752-31.72-490.952 97.156-59.032 53.544-132.532 140.724-169.844 265.232-2.284 7.624 5.232 14.512 12.56 11.392 20.888-8.892 58.864-15.368 112.696 13.34a434.92 434.92 0 0 0 108.468 68.664c193.652 85.768 416.232 18.884 533.016-148.564v0.032l0.124-0.216a436.232 436.232 0 0 0 15.088-23.152c39.86-52.372 89.084-55.196 115-52.168 7.568 0.872 13.084-7.048 9.44-13.736z"
          fill="#E0EBFC" p-id="3151"></path>
    <path d="M495 653.256m-257.4 0a257.4 257.4 0 1 0 514.8 0 257.4 257.4 0 1 0-514.8 0Z" fill="#6BDDDD"
          p-id="3152"></path>
    <path d="M495 653.256m-182.52 0a182.52 182.52 0 1 0 365.04 0 182.52 182.52 0 1 0-365.04 0Z" fill="#FFEA92"
          p-id="3153"></path>
    <path d="M488.656 767.604l-0.76-0.02c-35.124-0.976-62.804-30.24-61.828-65.364l3.132-112.716c0.976-35.124 30.24-62.804 65.364-61.828l0.76 0.02c35.124 0.976 62.804 30.24 61.828 65.364l-3.132 112.716c-0.976 35.12-30.24 62.804-65.364 61.828z"
          fill="#4671C6" p-id="3154"></path>
    <path d="M542.968 635.508l-0.664-0.02c-21.9-0.608-39.16-18.856-38.552-40.752l1.128-40.648c0.608-21.9 18.856-39.16 40.752-38.552l0.664 0.02c21.9 0.608 39.16 18.856 38.552 40.752l-1.128 40.648c-0.608 21.9-18.852 39.16-40.752 38.552z"
          fill="#E0EBFC" p-id="3155"></path>
    <path d="M495.188 918.66c-2.516 0-5.036-0.036-7.564-0.104-70.864-1.968-136.72-31.416-185.432-82.916-48.716-51.5-74.46-118.888-72.492-189.752 1.968-70.864 31.416-136.72 82.916-185.436 51.5-48.712 118.912-74.436 189.752-72.488 70.864 1.968 136.72 31.416 185.432 82.916 48.716 51.5 74.46 118.888 72.492 189.752-1.968 70.864-31.416 136.72-82.916 185.436-49.66 46.976-114.104 72.592-182.188 72.592z m-0.368-514.804c-63.984 0-124.532 24.072-171.204 68.22-48.396 45.776-76.068 107.664-77.916 174.256-1.848 66.588 22.34 129.916 68.12 178.312s107.664 76.068 174.256 77.916c66.56 1.836 129.916-22.344 178.312-68.12 48.396-45.776 76.068-107.664 77.916-174.256 1.848-66.588-22.34-129.916-68.12-178.312s-107.664-76.068-174.256-77.916a248.368 248.368 0 0 0-7.108-0.1z"
          fill="#3762CC" p-id="3156"></path>
    <path d="M467.98 919.152a441.36 441.36 0 0 1-179.06-37.904 443.168 443.168 0 0 1-109.772-69.336c-49.636-26.228-84.484-21.356-105.02-12.624a17.104 17.104 0 0 1-18.284-3.004 17.32 17.32 0 0 1-5.072-18.044c38.3-127.796 114.584-216.612 171.92-268.668 128.704-134.472 329.504-174.148 499.776-98.74a444.64 444.64 0 0 1 92.824 55.5c0.092 0.068 0.188 0.128 0.28 0.2 4.508 3.332 110.94 82.536 156.272 165.772a17.208 17.208 0 0 1-0.852 17.924 17.456 17.456 0 0 1-16.532 7.576c-24.084-2.808-70.008-0.204-107.456 48.74a444.492 444.492 0 0 1-14.976 22.972 8.34 8.34 0 0 1-0.504 0.724c-84.8 121.4-222.28 188.9-363.544 188.912z m-358.196-142.84c21.1 0 47.032 5.556 77.676 21.9 0.524 0.28 1.016 0.616 1.468 1.008a427.02 427.02 0 0 0 106.476 67.4c186.592 82.652 406.64 21.32 523.212-145.828l0.06-0.084 0.068-0.096a428.856 428.856 0 0 0 14.812-22.728c0.148-0.24 0.304-0.472 0.476-0.696 42.3-55.58 94.784-58.488 122.292-55.268a1.432 1.432 0 0 0 1.416-0.636c0.432-0.64 0.164-1.132 0.064-1.316-42.236-77.556-143.912-154.7-151.312-160.252a6.468 6.468 0 0 1-0.584-0.416 428.48 428.48 0 0 0-89.912-53.832c-164.2-72.728-357.88-34.404-481.928 95.368a12.868 12.868 0 0 1-0.408 0.4c-55.856 50.664-130.268 137.176-167.556 261.6a1.38 1.38 0 0 0 0.408 1.524c0.6 0.528 1.124 0.304 1.352 0.212 10.712-4.564 24.712-8.26 41.92-8.26z"
          fill="#3762CC" p-id="3157"></path>
    <path d="M106.612 289.816c-16.412 23.616-26.156 51.964-26.596 82.496-1.168 80.492 64.868 149.304 147.652 153.512 90.004 4.58 164.464-64.936 164.464-151.34 0-31.36-9.812-60.496-26.616-84.672h0.004l-0.04-0.06-0.004-0.004-116.408-170.292c-6.172-9.032-19.832-9.032-26.004 0l-116.4 170.288-0.02 0.032-0.032 0.04z"
          fill="#A4C9FF" p-id="3158"></path>
    <path d="M236.212 534.048c-2.972 0-5.956-0.08-8.952-0.232-86.832-4.416-156.476-76.916-155.248-161.616 0.452-31.12 10.132-61.168 27.988-86.892l0.028-0.044 116.428-170.328c4.388-6.42 11.716-10.256 19.604-10.256s15.216 3.836 19.608 10.256L372.08 285.24c18.352 26.416 28.052 57.268 28.052 89.252 0 43.312-17.544 83.84-49.4 114.116-31.024 29.48-71.404 45.436-114.52 45.44zM236.064 120.68c-2.636 0-4.968 1.2-6.396 3.288l-116.4 170.288a1.348 1.348 0 0 0-0.084 0.124c-16.06 23.108-24.764 50.1-25.168 78.052-1.104 76.192 61.728 141.42 140.06 145.408 42.02 2.12 81.68-12.364 111.636-40.832 28.648-27.228 44.42-63.636 44.42-102.52 0-28.7-8.708-56.404-25.184-80.104-0.068-0.092-0.168-0.252-0.228-0.344L242.464 123.968c-1.432-2.088-3.764-3.288-6.4-3.288zM106.612 289.816h0.04-0.04z"
          fill="#3762CC" p-id="3159"></path>
</svg>